#!OML:ASF H:\Not Pregnant\Project 1\Capture day 1\Session 1\non-pregnant.ASF
:FULLY-SPECIFIED
:DEGREES
477
root 4.9593 19.9247 13.1124 13.6067 -7.19521 -7.78578
lowerback 3.28957 2.90754 6.6719
upperback -5.83363 4.37572 -0.19947
thorax -7.48193 1.76102 -4.34554
lowerneck 15.494 -10.963 -31.1905
upperneck 1.90956 -21.6827 37.0551
head 6.2864 -12.4198 17.6922
rclavicle 3.10601e-015 5.56597e-015
rhumerus -34.1856 -9.3016 -82.8492
rradius 28.4933
rwrist 25.126
rhand -8.75745 -1.13702
rfingers 7.12502
rthumb 17.1799 -30.3975
lclavicle 3.10601e-015 5.56597e-015
lhumerus -41.7957 5.69075 81.8522
lradius 27.5923
lwrist 27.7325
lhand -14.0918 -9.37725
lfingers 7.12502
lthumb 12.0406 20.2564
rfemur -21.9927 2.38159 31.739
rtibia 40.7257
rfoot -26.7577 2.87363
rtoes -13.6168
lfemur -49.9782 2.04615 -10.4703
ltibia 46.2919
lfoot 4.44164 -2.49665
ltoes -31.9274
478
root 4.96954 19.8826 13.1757 13.4408 -7.52753 -7.9262
lowerback 3.28652 2.9404 6.84407
upperback -5.74434 4.42937 -0.166807
thorax -7.36895 1.78529 -4.40691
lowerneck 15.3951 -10.9397 -31.1755
upperneck 1.9737 -21.6313 37.0194
head 6.2935 -12.383 17.6768
rclavicle 3.47625e-014 -7.95139e-015
rhumerus -33.9419 -9.19353 -82.9196
rradius 28.5737
rwrist 25.0335
rhand -8.79472 -1.17036
rfingers 7.12502
rthumb 17.144 -30.434
lclavicle 3.47625e-014 -7.95139e-015
lhumerus -42.1504 5.85522 81.756
lradius 27.3225
lwrist 27.2203
lhand -13.9939 -9.24934
lfingers 7.12502
lthumb 12.135 20.3787
rfemur -21.774 2.68238 31.7774
rtibia 41.2917
rfoot -27.1858 2.67759
rtoes -13.9068
lfemur -49.4173 1.62417 -9.96942
ltibia 45.049
lfoot 5.68465 -3.04632
ltoes -31.2385
479
root 4.97995 19.8393 13.2402 13.2696 -7.87786 -8.07882
lowerback 3.27626 2.97774 7.0209
upperback -5.64962 4.48841 -0.131051
thorax -7.24505 1.81296 -4.46716
lowerneck 15.288 -10.919 -31.1549
upperneck 2.0448 -21.5816 36.9772
head 6.30285 -12.3456 17.656
rclavicle 1.18774e-014 -3.97569e-016
rhumerus -33.7047 -9.07649 -82.9941
rradius 28.6686
rwrist 24.9247
rhand -8.83212 -1.21174
rfingers 7.12502
rthumb 17.108 -30.4785
lclavicle 1.18774e-014 -3.97569e-016
lhumerus -42.52 5.97196 81.6925
lradius 27.1386
lwrist 26.8515
lhand -13.9492 -9.10766
lfingers 7.12502
lthumb 12.1781 20.5179
rfemur -21.5332 2.99111 31.8265
rtibia 41.8488
rfoot -27.6219 2.49434
rtoes -14.1545
lfemur -48.8145 1.24232 -9.46518
ltibia 43.8862
lfoot 6.83954 -3.66778
ltoes -30.4014
480
root 4.99041 19.7951 13.3057 13.0949 -8.24082 -8.24023
lowerback 3.26522 3.01894 7.19735
upperback -5.55136 4.55218 -0.0929121
thorax -7.11633 1.84366 -4.52464
lowerneck 15.1665 -10.9062 -31.1223
upperneck 2.12286 -21.5377 36.926
head 6.31599 -12.309 17.6251
rclavicle -7.35006e-014 7.95139e-015
rhumerus -33.4827 -8.94862 -83.0727
rradius 28.7897
rwrist 24.793
rhand -8.8703 -1.26375
rfingers 7.12502
rthumb 17.0713 -30.5337
lclavicle -7.35006e-014 7.95139e-015
lhumerus -42.898 6.04259 81.6636
lradius 27.0378
lwrist 26.6528
lhand -13.957 -8.95514
lfingers 7.12502
lthumb 12.1706 20.6708
rfemur -21.2718 3.30352 31.8841
rtibia 42.3929
rfoot -28.0663 2.32212
rtoes -14.3651
lfemur -48.1705 0.894251 -8.96294
ltibia 42.7965
lfoot 7.92147 -4.30631
ltoes -29.3695
481
root 5.00079 19.75 13.3723 12.9199 -8.61192 -8.41744
lowerback 3.25382 3.06348 7.37775
upperback -5.45755 4.62096 -0.0483254
thorax -6.9917 1.87681 -4.57785
lowerneck 15.0447 -10.8919 -31.0946
upperneck 2.21314 -21.4958 36.8742
head 6.33426 -12.2735 17.5952
rclavicle 4.89756e-014 2.06736e-014
rhumerus -33.2944 -8.81546 -83.1474
rradius 28.9379
rwrist 24.644
rhand -8.90821 -1.32034
rfingers 7.12502
rthumb 17.0348 -30.5934
lclavicle 4.89756e-014 2.06736e-014
lhumerus -43.2997 6.07995 81.6622
lradius 27.0204
lwrist 26.6259
lhand -14.0087 -8.80011
lfingers 7.12502
lthumb 12.1207 20.8288
rfemur -20.99 3.61887 31.9587
rtibia 42.9237
rfoot -28.5214 2.15751
rtoes -14.5697
lfemur -47.4879 0.587572 -8.46201
ltibia 41.7762
lfoot 8.93278 -4.93532
ltoes -28.2291
482
root 5.01116 19.7039 13.4399 12.7459 -8.98175 -8.5999
lowerback 3.23874 3.10488 7.55377
upperback -5.36588 4.68485 -0.000102817
thorax -6.86831 1.90808 -4.62409
lowerneck 14.9261 -10.876 -31.0765
upperneck 2.30859 -21.4573 36.8297
head 6.35758 -12.2407 17.5711
rclavicle -9.34288e-015 6.75868e-015
rhumerus -33.1328 -8.66721 -83.2257
rradius 29.1161
rwrist 24.4727
rhand -8.95134 -1.37512
rfingers 7.12502
rthumb 16.9933 -30.6518
lclavicle -9.34288e-015 6.75868e-015
lhumerus -43.7111 6.09519 81.6796
lradius 27.0721
lwrist 26.7658
lhand -14.0978 -8.65469
lfingers 7.12502
lthumb 12.0348 20.9793
rfemur -20.6946 3.92531 32.0388
rtibia 43.4451
rfoot -28.9909 2.00746
rtoes -14.7506
lfemur -46.7698 0.316855 -7.98027
ltibia 40.8184
lfoot 9.89251 -5.49535
ltoes -27.01
483
root 5.02136 19.657 13.5086 12.577 -9.34768 -8.78103
lowerback 3.21484 3.14584 7.71795
upperback -5.28017 4.74665 0.0507292
thorax -6.74735 1.93903 -4.6603
lowerneck 14.8045 -10.8605 -31.0643
upperneck 2.41926 -21.4235 36.7835
head 6.38841 -12.2101 17.5471
rclavicle -4.79568e-015 -3.89618e-014
rhumerus -33.003 -8.51222 -83.2986
rradius 29.3173
rwrist 24.2786
rhand -9.00907 -1.4098
rfingers 7.12502
rthumb 16.9377 -30.6913
lclavicle -4.79568e-015 -3.89618e-014
lhumerus -44.1201 6.08412 81.7196
lradius 27.1672
lwrist 27.0485
lhand -14.2076 -8.54007
lfingers 7.12502
lthumb 11.9289 21.1001
rfemur -20.3946 4.2263 32.1178
rtibia 43.9632
rfoot -29.4699 1.85745
rtoes -14.9775
lfemur -46.0242 0.0851677 -7.52926
ltibia 39.9206
lfoot 10.8021 -5.96245
ltoes -25.7774
484
root 5.0311 19.6092 13.5782 12.4167 -9.70805 -8.95691
lowerback 3.18569 3.18857 7.86646
upperback -5.20675 4.80948 0.0996039
thorax -6.63722 1.97067 -4.68992
lowerneck 14.6866 -10.849 -31.0515
upperneck 2.54443 -21.3998 36.7312
head 6.42579 -12.1844 17.5185
rclavicle 5.46658e-016 -3.97569e-016
rhumerus -32.9033 -8.37713 -83.3619
rradius 29.5225
rwrist 24.0815
rhand -9.08388 -1.43104
rfingers 7.12502
rthumb 16.8657 -30.7186
lclavicle 5.46658e-016 -3.97569e-016
lhumerus -44.535 6.04405 81.7722
lradius 27.3008
lwrist 27.4274
lhand -14.3173 -8.48177
lfingers 7.12502
lthumb 11.8232 21.1645
rfemur -20.0991 4.52863 32.1938
rtibia 44.4833
rfoot -29.9567 1.70495
rtoes -15.2277
lfemur -45.2609 -0.103313 -7.11539
ltibia 39.079
lfoot 11.6739 -6.31438
ltoes -24.5353
485
root 5.04033 19.5603 13.6489 12.2716 -10.0601 -9.12928
lowerback 3.14062 3.23287 8.00236
upperback -5.14365 4.87221 0.147151
thorax -6.52964 2.00269 -4.71303
lowerneck 14.567 -10.8429 -31.0383
upperneck 2.6848 -21.3867 36.673
head 6.47124 -12.1635 17.4848
rclavicle 1.33931e-014 0
rhumerus -32.8442 -8.24274 -83.4217
rradius 29.7513
rwrist 23.8626
rhand -9.18385 -1.44606
rfingers 7.12502
rthumb 16.7695 -30.7418
lclavicle 1.33931e-014 0
lhumerus -44.9447 5.9863 81.8311
lradius 27.4574
lwrist 27.8519
lhand -14.4072 -8.48068
lfingers 7.12502
lthumb 11.7364 21.1705
rfemur -19.8169 4.83412 32.2691
rtibia 45.0087
rfoot -30.4478 1.54112
rtoes -15.5137
lfemur -44.4918 -0.246615 -6.73788
ltibia 38.2934
lfoot 12.4848 -6.58688
ltoes -23.4461
486
root 5.04902 19.5109 13.7211 12.1411 -10.4005 -9.29343
lowerback 3.07511 3.28141 8.12814
upperback -5.09168 4.93783 0.187545
thorax -6.42178 2.03638 -4.73698
lowerneck 14.4542 -10.8441 -31.0209
upperneck 2.83401 -21.3879 36.6112
head 6.52265 -12.15 17.4463
rclavicle 1.86361e-014 7.95139e-016
rhumerus -32.8216 -8.14346 -83.4738
rradius 29.9861
rwrist 23.6429
rhand -9.31394 -1.46456
rfingers 7.12502
rthumb 16.6442 -30.7709
lclavicle 1.86361e-014 7.95139e-016
lhumerus -45.3504 5.91329 81.8862
lradius 27.632
lwrist 28.2693
lhand -14.467 -8.52674
lfingers 7.12502
lthumb 11.6788 21.1277
rfemur -19.5471 5.13956 32.3394
rtibia 45.5379
rfoot -30.939 1.36584
rtoes -15.813
lfemur -43.7204 -0.354338 -6.39897
ltibia 37.5616
lfoot 13.2393 -6.77824
ltoes -22.4353
487
root 5.05733 19.4609 13.795 12.0271 -10.7237 -9.44919
lowerback 2.98433 3.33102 8.24668
upperback -5.05413 5.00201 0.222624
thorax -6.31499 2.06933 -4.76091
lowerneck 14.3657 -10.8432 -31.0166
upperneck 2.98477 -21.397 36.5577
head 6.57665 -12.1437 17.4158
rclavicle 3.00662e-015 3.18055e-015
rhumerus -32.8497 -8.06757 -83.5199
rradius 30.2299
rwrist 23.4169
rhand -9.47987 -1.50102
rfingers 7.12502
rthumb 16.4845 -30.8207
lclavicle 3.00662e-015 3.18055e-015
lhumerus -45.7578 5.82185 81.9398
lradius 27.8149
lwrist 28.6677
lhand -14.4968 -8.59965
lfingers 7.12502
lthumb 11.6501 21.0565
rfemur -19.2888 5.43943 32.4041
rtibia 46.068
rfoot -31.4285 1.18334
rtoes -16.1004
lfemur -42.9536 -0.43421 -6.0973
ltibia 36.8827
lfoot 13.9329 -6.924
ltoes -21.5153
488
root 5.06537 19.411 13.8709 11.9315 -11.0259 -9.59641
lowerback 2.86097 3.38387 8.36493
upperback -5.03022 5.06712 0.249433
thorax -6.20313 2.10259 -4.79126
lowerneck 14.2879 -10.8467 -31.0047
upperneck 3.14569 -21.4149 36.492
head 6.63211 -12.1418 17.3769
rclavicle 3.17062e-014 1.66979e-014
rhumerus -32.9332 -8.03429 -83.5551
rradius 30.4837
rwrist 23.1926
rhand -9.69677 -1.54776
rfingers 7.12502
rthumb 16.2756 -30.8847
lclavicle 3.17062e-014 1.66979e-014
lhumerus -46.1574 5.70799 81.9908
lradius 27.997
lwrist 29.0292
lhand -14.4916 -8.6798
lfingers 7.12502
lthumb 11.655 20.976
rfemur -19.0419 5.72644 32.4628
rtibia 46.5937
rfoot -31.9126 0.996538
rtoes -16.3684
lfemur -42.1956 -0.509143 -5.82386
ltibia 36.2525
lfoot 14.5547 -7.05312
ltoes -20.7058
489
root 5.07327 19.3611 13.9491 11.8532 -11.3064 -9.73035
lowerback 2.70279 3.43805 8.47797
upperback -5.01978 5.13006 0.269689
thorax -6.08567 2.13495 -4.82308
lowerneck 14.2246 -10.8479 -30.9981
upperneck 3.31146 -21.4351 36.4231
head 6.68744 -12.1425 17.3388
rclavicle -1.48716e-014 -6.36111e-015
rhumerus -33.0724 -8.03449 -83.5793
rradius 30.739
rwrist 22.9638
rhand -9.9906 -1.58509
rfingers 7.12502
rthumb 15.9927 -30.9449
lclavicle -1.48716e-014 -6.36111e-015
lhumerus -46.5347 5.58021 82.038
lradius 28.1561
lwrist 29.345
lhand -14.4502 -8.76565
lfingers 7.12502
lthumb 11.695 20.8879
rfemur -18.8026 6.00066 32.5099
rtibia 47.1107
rfoot -32.3903 0.799212
rtoes -16.6275
lfemur -41.4473 -0.598761 -5.57536
ltibia 35.6664
lfoot 15.1141 -7.16718
ltoes -19.8821
490
root 5.08129 19.3113 14.0295 11.7924 -11.5627 -9.85323
lowerback 2.51189 3.4928 8.5906
upperback -5.02301 5.19031 0.285033
thorax -5.96395 2.16586 -4.85739
lowerneck 14.1639 -10.8495 -30.993
upperneck 3.4914 -21.4583 36.3397
head 6.74541 -12.1442 17.2939
rclavicle 3.86636e-014 0
rhumerus -33.263 -8.07323 -83.5874
rradius 30.9877
rwrist 22.7334
rhand -10.345 -1.60333
rfingers 7.12502
rthumb 15.6514 -30.9902
lclavicle 3.86636e-014 0
lhumerus -46.8915 5.46082 82.0683
lradius 28.293
lwrist 29.5791
lhand -14.3692 -8.8277
lfingers 7.12502
lthumb 11.7731 20.8214
rfemur -18.5716 6.26035 32.5474
rtibia 47.6162
rfoot -32.8592 0.594175
rtoes -16.8762
lfemur -40.7126 -0.718438 -5.34302
ltibia 35.1199
lfoot 15.6002 -7.29023
ltoes -19.1316
491
root 5.0896 19.2621 14.1122 11.7471 -11.7925 -9.95875
lowerback 2.28114 3.5469 8.70019
upperback -5.0322 5.24467 0.293554
thorax -5.82607 2.19465 -4.89366
lowerneck 14.097 -10.8547 -30.9858
upperneck 3.67457 -21.4839 36.2457
head 6.80427 -12.1459 17.2419
rclavicle 3.85394e-014 3.18055e-015
rhumerus -33.4923 -8.13955 -83.5835
rradius 31.2239
rwrist 22.4873
rhand -10.7427 -1.59691
rfingers 7.12502
rthumb 15.2683 -31.0134
lclavicle 3.85394e-014 3.18055e-015
lhumerus -47.1879 5.33803 82.0893
lradius 28.3716
lwrist 29.748
lhand -14.2539 -8.87421
lfingers 7.12502
lthumb 11.8843 20.7685
rfemur -18.3455 6.50176 32.5673
rtibia 48.108
rfoot -33.3212 0.382674
rtoes -17.1226
lfemur -39.9925 -0.889711 -5.12495
ltibia 34.6102
lfoot 15.9741 -7.42995
ltoes -18.5434
